{
  "accessors": [
    {
      "bufferView": 2,
      "componentType": 5126,
      "count": 13452,
      "max": [
        7.355649948120117,
        0.22458429634571075,
        2.2689871788024902
      ],
      "min": [
        -5.041135311126709,
        -0.22458429634571075,
        -1.2803648710250854
      ],
      "type": "VEC3"
    },
    {
      "bufferView": 2,
      "byteOffset": 161424,
      "componentType": 5126,
      "count": 13452,
      "max": [
        1.0,
        1.0,
        0.9999756217002869
      ],
      "min": [
        -1.0,
        -1.0,
        -0.9998152256011963
      ],
      "type": "VEC3"
    },
    {
      "bufferView": 1,
      "componentType": 5126,
      "count": 13452,
      "max": [
        0.9719823002815247,
        0.7474377751350403
      ],
      "min": [
        0.04617590457201004,
        0.35346001386642456
      ],
      "type": "VEC2"
    },
    {
      "bufferView": 0,
      "componentType": 5125,
      "count": 21828,
      "type": "SCALAR"
    },
    {
      "bufferView": 2,
      "byteOffset": 322848,
      "componentType": 5126,
      "count": 27464,
      "max": [
        -1.2095606327056885,
        0.7341698408126831,
        1.177124261856079
      ],
      "min": [
        -1.79176926612854,
        -0.7341698408126831,
        -0.1946689486503601
      ],
      "type": "VEC3"
    },
    {
      "bufferView": 2,
      "byteOffset": 652416,
      "componentType": 5126,
      "count": 27464,
      "max": [
        0.9998985528945923,
        1.0,
        0.9991929531097412
      ],
      "min": [
        -0.9989221692085266,
        -1.0,
        -0.9830764532089233
      ],
      "type": "VEC3"
    },
    {
      "bufferView": 1,
      "byteOffset": 107616,
      "componentType": 5126,
      "count": 27464,
      "max": [
        0.591508686542511,
        0.6895707249641418
      ],
      "min": [
        0.4285966455936432,
        0.2902924716472626
      ],
      "type": "VEC2"
    },
    {
      "bufferView": 0,
      "byteOffset": 87312,
      "componentType": 5125,
      "count": 44028,
      "type": "SCALAR"
    }
  ],
  "asset": {
    "extras": {
      "author": "Ria_Xana (https://sketchfab.com/Ria_Xana)",
      "license": "CC-BY-4.0 (http://creativecommons.org/licenses/by/4.0/)",
      "source": "https://sketchfab.com/3d-models/jizo-mitama-deb9b9cd1d534899ba77446626827804",
      "title": "Jizo Mitama"
    },
    "generator": "Sketchfab-12.65.0",
    "version": "2.0"
  },
  "bufferViews": [
    {
      "buffer": 0,
      "byteLength": 263424,
      "name": "floatBufferViews",
      "target": 34963
    },
    {
      "buffer": 0,
      "byteLength": 327328,
      "byteOffset": 263424,
      "byteStride": 8,
      "name": "floatBufferViews",
      "target": 34962
    },
    {
      "buffer": 0,
      "byteLength": 981984,
      "byteOffset": 590752,
      "byteStride": 12,
      "name": "floatBufferViews",
      "target": 34962
    }
  ],
  "buffers": [
    {
      "byteLength": 1572736,
      "uri": "scene.bin"
    }
  ],
  "images": [
    {
      "uri": "textures/jizo_mitama_baseColor.png"
    },
    {
      "uri": "textures/Jizo_thing_near_the_holder_baseColor.png"
    }
  ],
  "materials": [
    {
      "doubleSided": true,
      "name": "jizo_mitama",
      "pbrMetallicRoughness": {
        "baseColorTexture": {
          "index": 0
        },
        "metallicFactor": 0.0,
        "roughnessFactor": 0.3702362804878049
      }
    },
    {
      "doubleSided": true,
      "name": "Jizo_thing_near_the_holder",
      "pbrMetallicRoughness": {
        "baseColorTexture": {
          "index": 1
        },
        "metallicFactor": 0.0,
        "roughnessFactor": 0.8211145618000169
      }
    }
  ],
  "meshes": [
    {
      "name": "Vert.115_jizo mitama_0",
      "primitives": [
        {
          "attributes": {
            "NORMAL": 1,
            "POSITION": 0,
            "TEXCOORD_0": 2
          },
          "indices": 3,
          "material": 0,
          "mode": 4
        }
      ]
    },
    {
      "name": "Vert.115_Jizo thing near the holder_0",
      "primitives": [
        {
          "attributes": {
            "NORMAL": 5,
            "POSITION": 4,
            "TEXCOORD_0": 6
          },
          "indices": 7,
          "material": 1,
          "mode": 4
        }
      ]
    }
  ],
  "nodes": [
    {
      "children": [
        1
      ],
      "matrix": [
        1.0,
        0.0,
        0.0,
        0.0,
        0.0,
        2.220446049250313e-16,
        -1.0,
        0.0,
        0.0,
        1.0,
        2.220446049250313e-16,
        0.0,
        0.0,
        0.0,
        0.0,
        1.0
      ],
      "name": "Sketchfab_model"
    },
    {
      "children": [
        2
      ],
      "matrix": [
        1.0,
        0.0,
        0.0,
        0.0,
        0.0,
        0.0,
        1.0,
        0.0,
        0.0,
        -1.0,
        0.0,
        0.0,
        0.0,
        0.0,
        0.0,
        1.0
      ],
      "name": "57d526d640de49c998770e34bacb6401.fbx"
    },
    {
      "children": [
        3
      ],
      "name": "RootNode"
    },
    {
      "children": [
        4,
        5
      ],
      "matrix": [
        100.0,
        0.0,
        0.0,
        0.0,
        0.0,
        -1.25469942027344e-05,
        -77.01290130615132,
        0.0,
        0.0,
        99.99999999999868,
        -1.629206793918314e-05,
        0.0,
        1312.2186279296875,
        -240.69900512695313,
        53.77920150756836,
        1.0
      ],
      "name": "Vert.115"
    },
    {
      "mesh": 0,
      "name": "Vert.115_jizo mitama_0"
    },
    {
      "mesh": 1,
      "name": "Vert.115_Jizo thing near the holder_0"
    }
  ],
  "samplers": [
    {
      "magFilter": 9729,
      "minFilter": 9987,
      "wrapS": 10497,
      "wrapT": 10497
    }
  ],
  "scene": 0,
  "scenes": [
    {
      "name": "Sketchfab_Scene",
      "nodes": [
        0
      ]
    }
  ],
  "textures": [
    {
      "sampler": 0,
      "source": 0
    },
    {
      "sampler": 0,
      "source": 1
    }
  ]
}
